<svg width="1530" height="1547" viewBox="0 0 1530 1547" fill="none" xmlns="http://www.w3.org/2000/svg">
<path fill-rule="evenodd" clip-rule="evenodd" d="M744 362C839.545 362 917 302.678 917 229.5C917 156.322 839.545 97 744 97C648.455 97 571 156.322 571 229.5C571 302.678 648.455 362 744 362ZM744 310.71C814.496 310.71 871.644 274.351 871.644 229.5C871.644 184.649 814.496 148.29 744 148.29C673.504 148.29 616.356 184.649 616.356 229.5C616.356 274.351 673.504 310.71 744 310.71Z" fill="#B3A999"/>
<path d="M332 325.687C332 286.257 358.229 251.639 396.189 240.97L541.097 200.242C546.887 198.614 552.829 197.585 558.829 197.169L756.961 183.449C761.282 183.15 765.619 183.17 769.937 183.51L941.576 197.004C948.255 197.529 954.851 198.815 961.238 200.837L1083.56 239.561C1120.14 251.141 1145 285.088 1145 323.457V1277C1145 1325.6 1105.6 1365 1057 1365H420C371.399 1365 332 1325.6 332 1277V325.687Z" fill="#E2DAC8"/>
<path d="M358 361.165C358 321.984 383.904 287.522 421.54 276.632L555.088 237.99C561.024 236.272 567.125 235.185 573.29 234.745L759.42 221.476C763.868 221.159 768.333 221.181 772.777 221.54L933.77 234.571C940.628 235.126 947.397 236.483 953.939 238.615L1066.27 275.225C1102.49 287.029 1127 320.798 1127 358.893V1284C1127 1332.6 1087.6 1372 1039 1372H446C397.399 1372 358 1332.6 358 1284V361.165Z" fill="#FCF5E3"/>
<rect x="396" y="818" width="693" height="480" rx="97" fill="#8EB6BF"/>
<rect x="432" y="851" width="621" height="413" rx="97" fill="#C1E5ED"/>
<rect x="432" y="851" width="621" height="167" rx="83.5" fill="#476268"/>
<path d="M278.606 985.521C297.713 958.043 332.106 944.021 332.106 944.021V1301.02C332.106 1301.02 315.213 1304.04 278.606 1272.52C242 1241 259.5 1013 278.606 985.521Z" fill="#8EB6BF"/>
<path d="M1198.5 985.5C1179.39 958.021 1145 944 1145 944V1301C1145 1301 1161.89 1304.02 1198.5 1272.5C1235.11 1240.98 1217.61 1012.98 1198.5 985.5Z" fill="#8EB6BF"/>
<path d="M259.5 1035.5H333.5V1062.5H259.5V1035.5Z" fill="#C1E5ED"/>
<path d="M259.5 1035.5H333.5V1062.5H259.5V1035.5Z" fill="#C1E5ED"/>
<rect x="1145" y="1036" width="74" height="29" fill="#C1E5ED"/>
<path d="M358 774.03C657.752 641.502 824.533 645.158 1120 774.03" stroke="#7BA2AB" stroke-width="14"/>
<rect x="432" y="944" width="621" height="100" rx="11" fill="#476268"/>
<rect x="553" y="979" width="42" height="172" fill="#B3A999"/>
<rect x="888.584" y="979.157" width="42" height="172" transform="rotate(-5 888.584 979.157)" fill="#B3A999"/>
<rect x="546" y="970" width="64" height="47" fill="#FCF5E3"/>
<rect x="546" y="970" width="64" height="47" fill="#FCF5E3"/>
<rect x="546" y="970" width="64" height="47" fill="#FCF5E3"/>
<rect x="881" y="969.229" width="60" height="48" transform="rotate(-5 881 969.229)" fill="#FCF5E2"/>
<path d="M555 235.5L383 293.5L358 331V364.5V441L410 464L1072 474.5L1124 441V347.5L1109.5 312.5L1072 279L933 235.5L754.5 221L555 235.5Z" fill="#C1E5ED" stroke="#C1E5ED" stroke-width="11"/>
<rect x="358" y="417" width="769" height="100" rx="22" fill="#C1E5ED"/>
<rect x="525" y="475" width="42" height="201" fill="#B3A999"/>
<rect x="924" y="475" width="42" height="201" fill="#B3A999"/>
<rect x="502" y="440" width="87" height="54" fill="#FCF5E2"/>
<rect x="901" y="440" width="87" height="54" fill="#FCF5E2"/>
</svg>
