<svg width="1860" height="1804" viewBox="0 0 1860 1804" fill="none" xmlns="http://www.w3.org/2000/svg">
<circle cx="1025.5" cy="884.5" r="724.5" fill="#CCA555"/>
<circle cx="1025.5" cy="884.5" r="637.5" fill="#B69655"/>
<path d="M1024.02 1087.91V698.818H1048.95V1087.91H1024.02ZM1107.92 815.545C1106.1 800.144 1098.7 788.188 1085.73 779.676C1072.76 771.165 1056.85 766.909 1038.01 766.909C1024.23 766.909 1012.17 769.138 1001.83 773.597C991.598 778.055 983.594 784.185 977.818 791.987C972.144 799.789 969.307 808.655 969.307 818.585C969.307 826.894 971.283 834.037 975.234 840.016C979.287 845.893 984.455 850.807 990.737 854.759C997.019 858.609 1003.61 861.801 1010.5 864.334C1017.39 866.766 1023.72 868.741 1029.49 870.261L1061.11 878.773C1069.21 880.901 1078.23 883.839 1088.16 887.588C1098.19 891.337 1107.77 896.454 1116.89 902.939C1126.11 909.322 1133.71 917.53 1139.69 927.561C1145.66 937.592 1148.65 949.903 1148.65 964.494C1148.65 981.314 1144.25 996.513 1135.43 1010.09C1126.72 1023.67 1113.95 1034.46 1097.13 1042.46C1080.41 1050.47 1060.09 1054.47 1036.18 1054.47C1013.89 1054.47 994.588 1050.87 978.274 1043.68C962.062 1036.49 949.295 1026.46 939.973 1013.59C930.752 1000.72 925.534 985.773 924.318 968.75H963.227C964.241 980.504 968.192 990.231 975.082 997.932C982.074 1005.53 990.889 1011.21 1001.53 1014.95C1012.27 1018.6 1023.82 1020.43 1036.18 1020.43C1050.57 1020.43 1063.49 1018.1 1074.94 1013.43C1086.39 1008.67 1095.46 1002.09 1102.14 993.676C1108.83 985.165 1112.18 975.235 1112.18 963.886C1112.18 953.551 1109.29 945.141 1103.51 938.656C1097.74 932.171 1090.14 926.902 1080.71 922.849C1071.29 918.796 1061.11 915.25 1050.16 912.21L1011.86 901.267C987.545 894.276 968.294 884.295 954.108 871.325C939.922 858.356 932.83 841.384 932.83 820.409C932.83 802.981 937.541 787.782 946.964 774.812C956.489 761.741 969.256 751.609 985.266 744.415C1001.38 737.119 1019.36 733.472 1039.22 733.472C1059.28 733.472 1077.12 737.069 1092.72 744.263C1108.33 751.356 1120.69 761.083 1129.81 773.445C1139.03 785.806 1143.89 799.84 1144.4 815.545H1107.92Z" fill="#FFD580"/>
</svg>
