<svg width="199" height="239" viewBox="0 0 199 239" fill="none" xmlns="http://www.w3.org/2000/svg">
<path d="M114 62.5C114 79.897 106 86.5 98 88.5C90.5 86 82 79.897 82 62.5C82 45.103 90 34 98 28C106 34 114 45.103 114 62.5Z" fill="#520B6D"/>
<path d="M96.0116 33.0964C97.1357 33.7869 97.4232 49.2783 97.4232 49.2783C97.4232 49.2783 100.944 31.5429 101.658 33.0964C102.372 34.6499 98.8319 55.1459 98.8319 55.1459C98.8319 55.1459 103.906 35.6856 104.858 36.3761C105.81 37.0665 101.658 55.1459 101.658 55.1459L96.0116 69C96.0116 69 91.6348 39.9791 90.3654 37.1419C89.096 34.3047 91.5417 58.8863 91.5417 58.8863C91.5417 58.8863 91.5417 37.1419 92.718 37.1419C93.8943 37.1419 94.2686 46.7238 94.2686 46.7238C94.2686 46.7238 94.8875 32.406 96.0116 33.0964Z" fill="#EAAD4B"/>
<path d="M97.783 58.0799C103.708 72.7437 99.6977 80.8379 94.1203 85.0523C87.4016 85.3156 78.6736 82.8581 72.749 68.1942C66.8245 53.5304 72.7848 39.086 77 31.5C85.3018 34.0288 91.8584 43.4161 97.783 58.0799Z" fill="#A65CC2"/>
<rect x="95" y="86" width="5" height="122" fill="#9BC69B"/>
<path d="M74.5454 67.534C83.52 83.0785 98.5406 85.6781 95.3261 87.534C92.1116 89.3898 71.8261 78.534 62.8261 67.5339C53.8261 50.034 63.0454 38.534 65.5454 34.034C74.5454 34.034 65.5708 51.9894 74.5454 67.534Z" fill="#744587"/>
<path d="M124.402 69.053C118.478 83.7168 106.457 83.4367 99.517 82.5939C94.501 78.1161 89.9298 70.2852 95.8544 55.6214C101.779 40.9576 109.698 36.1306 118 33.6018C122.215 41.1878 130.327 54.3892 124.402 69.053Z" fill="#BC72D9"/>
<path d="M117.824 70.034C108.85 85.5785 93.8292 88.1781 97.0437 90.034C100.258 91.8898 117.922 81.034 126.922 70.034C135.922 52.534 129.422 37 126.922 32.5C117.922 32.5 126.799 54.4894 117.824 70.034Z" fill="#8A47A5"/>
<path d="M114 68.5C114 80.5 110.5 81 98.5 94C86 78.5 85 81.4787 85 68.5C85 55.5213 92 44.5 98.5 41C104.5 45 114 56.5 114 68.5Z" fill="#B98CCB"/>
<path d="M91.4925 159.081C96.7616 186.188 100.669 208.504 98.5 208.926C99.2382 206.5 91.7616 186.188 86.4925 159.081C81.2235 131.974 63.324 112.922 65.4925 112.5C67.6611 112.078 86.2235 131.974 91.4925 159.081Z" fill="#9BC69B"/>
<path d="M100.909 159.16C112.845 139.295 123.143 123.305 125.793 124.897C123.4 125.653 118.319 143.518 106.383 163.383C94.4473 183.248 101.601 209.202 98.951 207.61C96.3014 206.018 88.9729 179.025 100.909 159.16Z" fill="#9BC69B"/>
</svg>
