<svg width="966" height="812" viewBox="0 0 966 812" fill="none" xmlns="http://www.w3.org/2000/svg">
<path d="M270 250L322.828 472.75H217.172L270 250Z" fill="#5F815E"/>
<path d="M467.228 232.204L531.641 451.883L426.131 457.413L467.228 232.204Z" fill="#5F815E"/>
<path d="M305.559 189.316L409.077 445.012L305.364 465.172L305.559 189.316Z" fill="#5F815E"/>
<path d="M566.732 232.687L595.761 507.011L490.508 497.802L566.732 232.687Z" fill="#5F815E"/>
<path d="M745.94 194.946L746.136 470.801L642.422 450.642L745.94 194.946Z" fill="#5F815E"/>
<path d="M662 218L714.828 488.75H609.172L662 218Z" fill="#5F815E"/>
<path d="M616 297L668.828 567.75H563.172L616 297Z" fill="#5F815E"/>
<path d="M227.5 214L299.813 547H155.187L227.5 214Z" fill="#87B486"/>
<path d="M130.265 241.016L296.526 558.486L157.502 598.351L130.265 241.016Z" fill="#87B486"/>
<path d="M763.416 233.064L761.172 591.429L619.706 561.359L763.416 233.064Z" fill="#87B486"/>
<path d="M302.5 214L374.813 547H230.187L302.5 214Z" fill="#87B486"/>
<path d="M374.5 214L446.813 547H302.187L374.5 214Z" fill="#87B486"/>
<path d="M406.445 215.655L518.802 537.36L375.253 554.985L406.445 215.655Z" fill="#87B486"/>
<path d="M517.5 228L589.813 561H445.187L517.5 228Z" fill="#87B486"/>
<path d="M619.228 230.733L638.559 570.946L495.713 548.321L619.228 230.733Z" fill="#87B486"/>
<path d="M647.5 228L719.813 561H575.187L647.5 228Z" fill="#87B486"/>
<path d="M684.5 214L756.813 547H612.187L684.5 214Z" fill="#87B486"/>
<rect x="154" y="547" width="603" height="50" fill="#87B486"/>
</svg>
