<svg width="205" height="231" viewBox="0 0 205 231" fill="none" xmlns="http://www.w3.org/2000/svg">
<path d="M110.242 181.194C107.272 187.565 104.246 190.765 105.704 191.445C107.161 192.124 112.605 188.654 115.576 182.283C118.547 175.912 120.514 166.555 119.056 165.876C117.024 165.461 113.213 174.823 110.242 181.194Z" fill="#7A8F7A"/>
<path d="M131.516 113.041C126.545 118.012 122.119 119.495 123.822 121.198C125.524 122.9 133.045 122.72 138.016 117.749C142.986 112.779 147.272 103.896 145.569 102.193C143.093 100.399 136.486 108.071 131.516 113.041Z" fill="#829D82"/>
<path d="M122.113 121.883C110.182 147.469 101.463 153.963 103.686 155C109 157.478 117.755 145.586 129.686 120C140.186 92 158.223 59.5368 156 58.5C152.393 58.957 134.044 96.297 122.113 121.883Z" fill="#8AA78A"/>
<path d="M117.292 113.65C112.321 118.62 106.204 120.592 107.341 121.73C108.478 122.867 116.321 118.62 121.292 113.65C126.262 108.679 127.951 103.84 127.292 105.305C125.524 104.22 122.262 108.679 117.292 113.65Z" fill="#7A8F7A"/>
<path d="M104.192 147.368C105.473 155.459 107.806 160.02 105.988 160.308C104.171 160.596 99.2606 154.948 97.9791 146.857C96.6976 138.765 97.4539 127.659 99.2713 127.371C101.638 127.565 102.91 139.276 104.192 147.368Z" fill="#829D82"/>
<path d="M102.545 39.3534L107.273 12L112 106.685L107.273 201.37L99 204L107.273 106.685L102.545 39.3534Z" fill="#8AA78A"/>
<path d="M110.865 104.599C110.971 110.673 111.573 115.837 108.67 115.888C105.767 115.938 102.346 111.998 102.24 105.923C102.134 99.8491 103.775 92.1205 106.678 92.0698C109.581 92.0192 110.759 98.5246 110.865 104.599Z" fill="#9B83C9"/>
<path d="M107.077 103.332C108.34 109.274 109.917 114.228 107.077 114.832C104.237 115.436 100.127 112.22 98.8638 106.278C97.6007 100.335 97.7366 92.4357 100.577 91.8321C103.417 91.2284 105.814 97.3897 107.077 103.332Z" fill="#A591CD"/>
<path d="M103.433 104.398C106.559 109.401 109.693 113.368 107.024 115.036C104.355 116.703 99.2152 115.335 96.0887 110.331C92.9622 105.328 90.6322 97.9668 93.3015 96.2989C95.9708 94.6309 100.306 99.3941 103.433 104.398Z" fill="#B5A5D7"/>
<path d="M109.654 102.01C110.917 96.0678 111.491 90.9007 114.331 91.5044C117.171 92.108 119.618 96.7172 118.355 102.66C117.092 108.602 113.755 115.763 110.914 115.16C108.074 114.556 108.391 107.953 109.654 102.01Z" fill="#A48CD2"/>
<path d="M117.073 109.054C120.958 105.794 124.045 102.754 125.299 104.248C126.553 105.743 125.442 109.614 121.557 112.874C117.672 116.134 111.982 119.351 110.728 117.857C109.474 116.363 113.188 112.314 117.073 109.054Z" fill="#9B83C9"/>
<path d="M112.785 100.886C116.525 96.0983 119.306 91.7059 121.594 93.4935C123.882 95.2811 124.061 100.496 120.321 105.284C116.58 110.071 110.442 115.045 108.154 113.257C105.865 111.469 109.045 105.673 112.785 100.886Z" fill="#A891D5"/>
<path d="M105.135 74.5988C105.029 80.673 104.427 85.8368 107.33 85.8875C110.233 85.9382 113.654 81.9976 113.76 75.9234C113.866 69.8491 112.225 62.1205 109.322 62.0698C106.419 62.0192 105.241 68.5246 105.135 74.5988Z" fill="#A994D2"/>
<path d="M108.923 73.3321C107.66 79.2744 106.083 84.2284 108.923 84.8321C111.763 85.4357 115.873 82.2202 117.136 76.2778C118.399 70.3355 118.263 62.4357 115.423 61.8321C112.583 61.2284 110.186 67.3897 108.923 73.3321Z" fill="#8C6CCD"/>
<path d="M112.567 74.3976C109.441 79.401 106.307 83.3675 108.976 85.0355C111.645 86.7035 116.785 85.3345 119.911 80.331C123.038 75.3275 125.368 67.9668 122.699 66.2989C120.029 64.6309 115.694 69.3941 112.567 74.3976Z" fill="#8872B5"/>
<path d="M106.346 72.0101C105.083 66.0678 104.509 60.9007 101.669 61.5044C98.8286 62.108 96.382 66.7172 97.6451 72.6595C98.9082 78.6019 102.245 85.7634 105.086 85.1597C107.926 84.556 107.609 77.9525 106.346 72.0101Z" fill="#A48CD2"/>
<path d="M98.9272 76.054C95.0421 72.7941 91.955 69.7542 90.7011 71.2485C89.4473 72.7428 90.5578 76.6138 94.4428 79.8738C98.3279 83.1337 104.018 86.3512 105.272 84.8569C106.526 83.3626 102.812 79.314 98.9272 76.054Z" fill="#A994D2"/>
<path d="M103.215 70.8856C99.4749 66.0983 96.6936 61.7059 94.4056 63.4935C92.1175 65.2811 91.9391 70.4963 95.6793 75.2835C99.4195 80.0708 105.558 85.0445 107.846 83.2569C110.135 81.4693 106.955 75.6728 103.215 70.8856Z" fill="#997DD0"/>
<path d="M106.153 108.238C110.101 112.622 113.876 115.984 111.537 118.091C109.198 120.197 103.899 119.741 99.9509 115.356C96.003 110.972 92.4303 104.128 94.7694 102.021C97.1085 99.9153 102.205 103.853 106.153 108.238Z" fill="#9B83C9"/>
<path d="M111.393 43.5495C109.035 47.1814 106.644 50.0265 108.806 51.4301C110.967 52.8338 115.015 52.0628 117.373 48.4309C119.732 44.7991 121.399 39.3382 119.238 37.9346C117.076 36.5309 113.752 39.9177 111.393 43.5495Z" fill="#A48DD1"/>
<path d="M110.373 23.2369C110.373 29.1369 110.928 34.1613 107.781 34.1613C104.633 34.1613 101 30.2769 101 24.3769C101 18.4769 102.925 11 106.072 11C109.22 11 110.373 17.3369 110.373 23.2369Z" fill="#B49FDE"/>
<path d="M110.373 23.2369C110.373 29.1369 110.928 34.1613 107.781 34.1613C104.633 34.1613 101 30.2769 101 24.3769C101 18.4769 102.925 11 106.072 11C109.22 11 110.373 17.3369 110.373 23.2369Z" fill="#B49FDE"/>
<path d="M110.373 23.2369C110.373 29.1369 110.928 34.1613 107.781 34.1613C104.633 34.1613 101 30.2769 101 24.3769C101 18.4769 102.925 11 106.072 11C109.22 11 110.373 17.3369 110.373 23.2369Z" fill="#B49FDE"/>
<path d="M110.373 23.2369C110.373 29.1369 110.928 34.1613 107.781 34.1613C104.633 34.1613 101 30.2769 101 24.3769C101 18.4769 102.925 11 106.072 11C109.22 11 110.373 17.3369 110.373 23.2369Z" fill="#B49FDE"/>
<path d="M151.495 59.6164C148.545 64.726 145.552 68.7994 148.277 70.3732C151.003 71.947 156.092 70.3995 159.042 65.2899C161.992 60.1804 164.063 52.7429 161.338 51.1691C158.612 49.5953 154.445 54.5068 151.495 59.6164Z" fill="#B49FDE"/>
<path d="M151.495 59.6164C148.545 64.726 145.552 68.7994 148.277 70.3732C151.003 71.947 156.092 70.3995 159.042 65.2899C161.992 60.1804 164.063 52.7429 161.338 51.1691C158.612 49.5953 154.445 54.5068 151.495 59.6164Z" fill="#B49FDE"/>
<path d="M151.495 59.6164C148.545 64.726 145.552 68.7994 148.277 70.3732C151.003 71.947 156.092 70.3995 159.042 65.2899C161.992 60.1804 164.063 52.7429 161.338 51.1691C158.612 49.5953 154.445 54.5068 151.495 59.6164Z" fill="#B49FDE"/>
<path d="M151.495 59.6164C148.545 64.726 145.552 68.7994 148.277 70.3732C151.003 71.947 156.092 70.3995 159.042 65.2899C161.992 60.1804 164.063 52.7429 161.338 51.1691C158.612 49.5953 154.445 54.5068 151.495 59.6164Z" fill="#B096E3"/>
<path d="M154.898 64.4614C151.228 67.541 147.812 69.8176 149.457 71.7776C151.102 73.7376 155.416 73.9724 159.086 70.8928C162.757 67.8132 166.402 62.712 164.757 60.752C163.113 58.792 158.568 61.3818 154.898 64.4614Z" fill="#B49FDE"/>
<path d="M154.898 64.4614C151.228 67.541 147.812 69.8176 149.457 71.7776C151.102 73.7376 155.416 73.9724 159.086 70.8928C162.757 67.8132 166.402 62.712 164.757 60.752C163.113 58.792 158.568 61.3818 154.898 64.4614Z" fill="#B49FDE"/>
<path d="M154.898 64.4614C151.228 67.541 147.812 69.8176 149.457 71.7776C151.102 73.7376 155.416 73.9724 159.086 70.8928C162.757 67.8132 166.402 62.712 164.757 60.752C163.113 58.792 158.568 61.3818 154.898 64.4614Z" fill="#856BB8"/>
<path d="M154.898 64.4614C151.228 67.541 147.812 69.8176 149.457 71.7776C151.102 73.7376 155.416 73.9724 159.086 70.8928C162.757 67.8132 166.402 62.712 164.757 60.752C163.113 58.792 158.568 61.3818 154.898 64.4614Z" fill="#B49FDE"/>
<path d="M144.931 63.2475C144.142 69.0944 142.919 73.9992 146.038 74.4205C149.157 74.8418 153.278 71.4785 154.067 65.6316C154.857 59.7846 153.95 52.1174 150.831 51.6962C147.712 51.2749 145.721 57.4005 144.931 63.2475Z" fill="#B49FDE"/>
<path d="M144.931 63.2475C144.142 69.0944 142.919 73.9992 146.038 74.4205C149.157 74.8418 153.278 71.4785 154.067 65.6316C154.857 59.7846 153.95 52.1174 150.831 51.6962C147.712 51.2749 145.721 57.4005 144.931 63.2475Z" fill="#B49FDE"/>
<path d="M144.931 63.2475C144.142 69.0944 142.919 73.9992 146.038 74.4205C149.157 74.8418 153.278 71.4785 154.067 65.6316C154.857 59.7846 153.95 52.1174 150.831 51.6962C147.712 51.2749 145.721 57.4005 144.931 63.2475Z" fill="#B49FDE"/>
<path d="M144.931 63.2475C144.142 69.0944 142.919 73.9992 146.038 74.4205C149.157 74.8418 153.278 71.4785 154.067 65.6316C154.857 59.7846 153.95 52.1174 150.831 51.6962C147.712 51.2749 145.721 57.4005 144.931 63.2475Z" fill="#9880C7"/>
<path d="M110.964 78.9817C110.964 83.3122 111.495 87 108.485 87C105.475 87 102 84.1489 102 79.8184C102 75.4879 103.841 70 106.851 70C109.861 70 110.964 74.6512 110.964 78.9817Z" fill="#9B83C9"/>
<path d="M137.964 87.095C137.964 92.4444 138.495 97 135.485 97C132.475 97 129 93.4781 129 88.1286C129 82.7792 130.841 76 133.851 76C136.861 76 137.964 81.7456 137.964 87.095Z" fill="#A899C6"/>
<path d="M142.46 90.848C145.566 88.2422 147.927 85.6847 149.535 87.6016C151.143 89.5185 150.955 93.4466 147.85 96.0525C144.744 98.6583 139.825 100.788 138.217 98.8715C136.608 96.9546 139.355 93.4538 142.46 90.848Z" fill="#A791D3"/>
<path d="M104.964 24.9817C104.964 29.3122 105.495 33 102.485 33C99.4746 33 96 30.1489 96 25.8184C96 21.4879 97.8407 16 100.851 16C103.861 16 104.964 20.6512 104.964 24.9817Z" fill="#9B83C9"/>
<path d="M105.865 33.5988C105.971 39.673 106.573 44.8368 103.67 44.8875C100.767 44.9382 97.3464 40.9976 97.2404 34.9234C97.1344 28.8491 98.7752 21.1205 101.678 21.0698C104.581 21.0192 105.759 27.5246 105.865 33.5988Z" fill="#9B83C9"/>
<path d="M102.077 32.3321C103.34 38.2744 104.917 43.2284 102.077 43.8321C99.2366 44.4357 95.1269 41.2202 93.8638 35.2778C92.6007 29.3355 92.7366 21.4357 95.5768 20.8321C98.4169 20.2284 100.814 26.3897 102.077 32.3321Z" fill="#A591CD"/>
<path d="M98.4329 33.3976C101.559 38.401 104.693 42.3675 102.024 44.0355C99.3547 45.7035 94.2152 44.3345 91.0887 39.331C87.9622 34.3275 85.6322 26.9668 88.3015 25.2989C90.9708 23.6309 95.3064 28.3941 98.4329 33.3976Z" fill="#B5A5D7"/>
<path d="M104.654 31.0101C105.917 25.0678 106.491 19.9007 109.331 20.5044C112.171 21.108 114.618 25.7172 113.355 31.6595C112.092 37.6019 108.755 44.7634 105.914 44.1597C103.074 43.556 103.391 36.9525 104.654 31.0101Z" fill="#A48CD2"/>
<path d="M112.073 35.054C115.958 31.7941 119.045 28.7542 120.299 30.2485C121.553 31.7428 120.442 35.6138 116.557 38.8738C112.672 42.1337 106.982 45.3512 105.728 43.8569C104.474 42.3626 108.188 38.314 112.073 35.054Z" fill="#9B83C9"/>
<path d="M107.785 29.8856C111.525 25.0983 114.306 20.7059 116.594 22.4935C118.882 24.2811 119.061 29.4963 115.321 34.2835C111.58 39.0708 105.442 44.0445 103.154 42.2569C100.865 40.4693 104.045 34.6728 107.785 29.8856Z" fill="#A891D5"/>
<path d="M99.9693 183.308C102.393 188.505 105.382 190.872 103.59 191.708C101.798 192.544 96.057 190.319 93.6336 185.122C91.2102 179.925 90.4199 171.912 92.212 171.076C94.6257 170.385 97.5459 178.111 99.9693 183.308Z" fill="#8AA78A"/>
<path d="M146.477 73.2876C143.628 78.0354 140.814 81.8457 143.008 83.1654C145.201 84.4852 149.609 82.8826 152.458 78.1347C155.307 73.3868 157.576 66.563 155.383 65.2433C153.189 63.9236 149.326 68.5397 146.477 73.2876Z" fill="#C6B4EA"/>
<path d="M149.946 73.9574C146.274 78.0911 142.812 81.3063 144.705 83.0347C146.599 84.7632 151.202 84.0367 154.874 79.9029C158.547 75.7692 162.043 69.4737 160.15 67.7452C158.256 66.0168 153.619 69.8236 149.946 73.9574Z" fill="#9075C7"/>
<path d="M152.243 76.4046C147.575 78.9759 143.375 80.7254 144.653 83.2186C145.931 85.7118 150.479 86.8968 155.146 84.3255C159.813 81.7543 164.947 76.9713 163.669 74.4781C162.391 71.9848 156.91 73.8334 152.243 76.4046Z" fill="#BBA4EA"/>
<path d="M148.581 71.7779C150.325 66.5306 152.241 62.1989 149.797 61.4234C147.354 60.648 143.385 63.2077 141.642 68.455C139.898 73.7023 139.182 80.8263 141.626 81.6017C144.069 82.3771 146.837 77.0253 148.581 71.7779Z" fill="#A48CD2"/>
<path d="M141.074 71.6996C139.593 67.4138 138.621 63.6534 136.983 64.2802C135.345 64.907 134.428 68.4521 135.909 72.7379C137.39 77.0236 140.268 82.0716 141.906 81.4448C143.544 80.818 142.554 75.9853 141.074 71.6996Z" fill="#C6B4EA"/>
<path d="M146.703 69.51C146.029 64.0825 145.907 59.3894 143.345 59.7918C140.784 60.1943 138.271 64.2321 138.945 69.6597C139.619 75.0872 142.039 81.7192 144.601 81.3168C147.163 80.9143 147.377 74.9375 146.703 69.51Z" fill="#9181B1"/>
</svg>
