<svg width="141" height="197" viewBox="0 0 141 197" fill="none" xmlns="http://www.w3.org/2000/svg">
<rect x="70" y="74" width="6" height="116" fill="#4A734A"/>
<path d="M87.1894 14.5281C87.1894 27.2492 84.2881 37.1561 76.104 37.1561C72.751 37.1561 64.5062 31.0877 62.6072 24.1321C56.4294 1.50413 62.6072 7.25892 74.6343 8.77332C85.5203 7.25892 90.7418 3.92722 87.1894 14.5281Z" fill="#E3A135"/>
<path d="M58.0389 97.9818C58.0389 85.2607 60.9402 75.3538 69.1243 75.3538C72.4772 75.3538 80.7221 81.4222 82.6211 88.3778C88.7989 111.006 82.6211 105.251 70.594 103.737C59.708 105.251 54.4865 108.583 58.0389 97.9818Z" fill="#EFBA65"/>
<path d="M25.8293 57.435C39.0593 57.435 49.3626 55.2569 49.3626 49.1128C49.3626 46.5957 43.0514 40.406 35.8175 38.9803C12.2842 34.3424 18.2693 38.9804 19.8443 48.0095C18.2693 56.182 14.8043 60.1019 25.8293 57.435Z" fill="#B38439"/>
<path d="M118.318 68.4923C105.088 68.4923 94.7843 66.3141 94.7843 60.17C94.7843 57.6529 101.095 51.4632 108.329 50.0376C131.863 45.3997 125.878 50.0376 124.303 59.0667C125.878 67.2392 129.343 71.1592 118.318 68.4923Z" fill="#DEA445"/>
<path d="M87.0129 19.5637C83.4707 31.8513 83.5145 42.1186 91.4198 44.0875C94.6584 44.8941 104.312 41.0159 108.083 34.7541C120.351 14.3834 112.782 18.4559 100.743 17.0254C90.6493 12.9437 86.5335 8.46944 87.0129 19.5637Z" fill="#DEA445"/>
<path d="M108.872 32.2641C97.6608 39.5606 90.594 47.452 95.2882 53.6833C97.2114 56.2361 107.288 59.033 114.508 56.4893C137.993 48.2141 129.378 46.8112 121.145 38.5226C116.236 29.3655 116.177 23.4789 108.872 32.2641Z" fill="#C49241"/>
<path d="M48.8308 94.736C60.7735 86.9634 68.5673 78.9098 64.3165 73.2671C62.575 70.9554 52.5955 68.9787 45.0792 71.9193C20.627 81.4857 29.2384 82.2289 36.907 89.5959C41.1394 98.0268 40.7236 103.663 48.8308 94.736Z" fill="#E1AD5A"/>
<path d="M107.083 85.4324C99.2325 75.0119 90.7424 68.4434 84.0383 72.8066C81.2918 74.5941 78.2828 83.9606 81.0194 90.6707C89.9225 112.5 91.4318 104.492 100.349 96.8399C110.201 92.2768 116.534 92.2223 107.083 85.4324Z" fill="#DCA752"/>
<path d="M37.6107 32.5936C45.4608 43.0141 53.9509 49.5826 60.6549 45.2194C63.4015 43.4319 66.4105 34.0654 63.6738 27.3553C54.7708 5.52597 53.2614 13.5336 44.344 21.1861C34.4921 25.7492 28.1589 25.8038 37.6107 32.5936Z" fill="#EAAD4B"/>
<path d="M117.721 68.1305C104.501 64.8381 93.4543 64.8788 91.3361 72.2266C90.4683 75.2369 94.6407 84.2098 101.378 87.7149C123.294 99.118 118.912 92.082 120.451 80.8921C124.843 71.5105 129.657 67.6849 117.721 68.1305Z" fill="#EAAD4B"/>
<path d="M26.4073 60.1603C40.2243 56.7191 51.5895 56.1374 53.2957 62.0561C53.9947 64.4808 49.1225 72.0849 41.9635 75.3398C18.6741 85.9286 23.6367 79.9042 22.7742 70.7967C18.8598 63.3338 14.1525 60.4589 26.4073 60.1603Z" fill="#C99136"/>
<ellipse cx="72.5" cy="59" rx="29.5" ry="28" fill="#6D4A34"/>
<ellipse cx="74.4461" cy="55.6379" rx="20.7415" ry="20.8448" fill="#4A3223"/>
<path d="M54.6923 51.6162C54.6923 63.2737 39.882 69 33.2622 69C26.6423 69 31.4461 59.2216 35.8048 51.6162C33.2622 43.2645 29.1849 35.8621 35.8048 35.8621C42.4246 35.8621 50.6969 45.0972 54.6923 51.6162Z" fill="#F7D596"/>
<path d="M65.2979 74.3448C76.0691 74.3448 81.3601 89.7326 81.3601 96.6106C81.3601 103.489 72.3251 98.4975 65.2979 93.9689C57.5812 96.6106 53.2108 100.847 53.2108 93.9689C53.2108 87.0909 59.2746 78.4961 65.2979 74.3448Z" fill="#F7D596"/>
<path d="M85.2015 70.1667C76.9858 73.4031 77.9944 89.9919 80.249 96.6962C82.5036 103.401 87.7589 95.8208 91.6344 89.2952C98.3862 89.5516 104.992 91.6258 102.737 84.9215C100.483 78.2172 91.1566 72.4034 85.2015 70.1667Z" fill="#C8AD7B"/>
<path d="M70.9794 36.4962C60.8578 40.4833 51.0231 27.982 48.8496 21.5188C46.676 15.0556 56.7434 16.4013 64.7779 18.0556C71.1944 12.7167 76.2828 6.2042 78.4564 12.6674C80.6299 19.1306 75.3276 30.3657 70.9794 36.4962Z" fill="#F7D596"/>
<path d="M79.071 36.7145C85.4167 40.6797 95.4868 29.5934 98.5947 23.7675C101.703 17.9416 94.1245 18.8432 87.9383 20.0923C84.5858 15.0139 82.4705 8.90782 79.3626 14.7337C76.2548 20.5596 77.3983 30.9809 79.071 36.7145Z" fill="#F2CB81"/>
<path d="M92.2246 54.9808C92.2246 64.382 107.035 69 113.655 69C120.275 69 115.471 61.1142 111.112 54.9808C113.655 48.2456 117.732 42.2758 111.112 42.2758C104.492 42.2758 96.2201 49.7236 92.2246 54.9808Z" fill="#F7D596"/>
<path d="M90.8128 63.2856C85.6127 69.9928 94.6665 83.8294 99.8552 88.5414C105.044 93.2534 107.558 86.6335 107.534 79.1552C113.252 76.1598 117.833 72.3775 112.644 67.6655C107.456 62.9535 96.8523 62.3788 90.8128 63.2856Z" fill="#E9CA92"/>
<path d="M59.3443 45.2675C64.5444 38.5603 55.4906 24.7237 50.3019 20.0117C45.1133 15.2996 44.5166 24.345 44.5403 31.8234C38.822 34.8187 32.3242 36.1756 37.5128 40.8876C42.7014 45.5996 53.3047 46.1743 59.3443 45.2675Z" fill="#F2DAAD"/>
<path d="M58.9377 66.191C65.2986 74.3955 58.4103 87.5188 53.9347 91.5833C49.4592 95.6477 47.3713 85.8163 46.1682 77.7876C39.8921 73.4708 33.0964 70.7644 37.5719 66.6999C42.0475 62.6355 52.6794 64.0562 58.9377 66.191Z" fill="#ECC989"/>
<path d="M88.7569 46.8456C94.2303 51.8163 108.747 46.6494 112.966 41.2069C117.186 35.7644 107.145 30.9768 100.796 31.3174C98.4954 25.6659 97.6187 19.1575 93.3991 24.6C89.1796 30.0424 88.2429 40.7812 88.7569 46.8456Z" fill="#ECC989"/>
<path d="M68.8746 34.1062C68.8746 41.045 70.3894 46.4488 74.6626 46.4488C76.4132 46.4488 80.718 43.1388 81.7095 39.3448C84.9351 27.0023 81.7095 30.1412 75.4299 30.9673C69.7461 30.1412 67.0198 28.3239 68.8746 34.1062Z" fill="#D0B17F"/>
<path d="M84.0947 79.6264C84.0947 72.6876 82.5799 67.2839 78.3067 67.2839C76.5561 67.2839 72.2513 70.5939 71.2598 74.3879C68.0342 86.7304 71.2598 83.5914 77.5394 82.7654C83.2232 83.5914 85.9495 85.4087 84.0947 79.6264Z" fill="#BD9A61"/>
<path d="M100.912 57.51C94.0044 57.51 88.6248 56.3219 88.6248 52.9706C88.6248 51.5976 91.9201 48.2214 95.697 47.4438C107.984 44.914 104.859 47.4438 104.037 52.3688C104.859 56.8265 106.669 58.9647 100.912 57.51Z" fill="#AF8C53"/>
<path d="M52.6218 63.5413C59.5295 63.5413 64.9091 62.3532 64.9091 59.0019C64.9091 57.6289 61.6139 54.2527 57.8369 53.4751C45.5496 50.9453 48.6745 53.4751 49.4969 58.4C48.6745 62.8578 46.8654 64.9959 52.6218 63.5413Z" fill="#D0A662"/>
<path d="M68.9667 36.8529C70.8162 43.5553 70.7933 49.1556 66.6658 50.2295C64.9748 50.6695 59.9344 48.5541 57.9654 45.1386C51.5599 34.0273 55.5122 36.2487 61.7981 35.4684C67.0681 33.242 69.2171 30.8015 68.9667 36.8529Z" fill="#D0A662"/>
<path d="M57.5536 43.7804C63.4072 47.7604 67.0969 52.0647 64.646 55.4636C63.6419 56.8561 58.3804 58.3816 54.611 56.9942C42.3487 52.4804 46.8469 51.7152 51.1456 47.1942C53.7088 42.1994 53.7395 38.9885 57.5536 43.7804Z" fill="#E1B46C"/>
<path d="M88.9025 77.856C82.6669 73.6164 78.5976 69.2235 80.817 66.1457C81.7263 64.8848 86.9368 63.8066 90.8613 65.4105C103.628 70.6286 99.1321 71.034 95.1282 75.0523C92.9183 79.651 93.1354 82.725 88.9025 77.856Z" fill="#C7A266"/>
<path d="M58.4878 72.7813C62.5866 67.0974 67.0195 63.5146 70.5198 65.8945C71.9538 66.8695 73.5249 71.9785 72.096 75.6386C67.4476 87.5455 66.6595 83.1777 62.0035 79.0036C56.8596 76.5146 53.5529 76.4849 58.4878 72.7813Z" fill="#EAC589"/>
<path d="M94.7608 43.9602C90.6621 49.6441 86.2292 53.2269 82.7289 50.847C81.2948 49.872 79.7237 44.763 81.1526 41.1029C85.8011 29.196 86.5892 33.5638 91.2452 37.7379C96.3891 40.2269 99.6958 40.2566 94.7608 43.9602Z" fill="#B89F76"/>
<path d="M52.9335 63.3439C59.8359 61.5481 65.6035 61.5703 66.7094 65.5782C67.1625 67.2201 64.984 72.1144 61.4665 74.0264C50.0235 80.2462 52.3112 76.4084 51.5076 70.3048C49.2148 65.1876 46.7014 63.1009 52.9335 63.3439Z" fill="#B89F76"/>
<path d="M100.61 58.9965C93.3962 57.1195 87.4621 56.8022 86.5712 60.0306C86.2063 61.3532 88.7502 65.5009 92.4881 67.2763C104.648 73.052 102.057 69.7659 102.507 64.7982C104.551 60.7275 107.009 59.1594 100.61 58.9965Z" fill="#CDA25E"/>
<path d="M112 156.5C112.607 158.167 106.586 167.151 94.6363 171.5C84 173.601 74.705 175.267 74.0983 173.601C73.4917 171.934 82.6869 167.057 94.6363 162.708C106.586 158.359 111.393 154.833 112 156.5Z" fill="#4A734A"/>
<path d="M73.6528 149.016C74.5396 147.48 69.178 144.588 59.5 139C49.822 133.412 39.4925 127.245 38.6057 128.781C36 128.781 44.822 139.912 54.5 145.5C64.178 151.088 72.766 150.552 73.6528 149.016Z" fill="#4A734A"/>
</svg>
