<svg width="347" height="252" viewBox="0 0 347 252" fill="none" xmlns="http://www.w3.org/2000/svg">
<rect x="48" y="181" width="233" height="56" fill="#563F3F"/>
<path d="M48 181.5H281V188.5H48V181.5Z" fill="#4D3C3C"/>
<path d="M48 181.5H281V188.5H48V181.5Z" fill="#413131"/>
<path d="M48 193H281V195H48V193Z" fill="#4D3C3C"/>
<path d="M48 193H281V195H48V193Z" fill="#413131"/>
<path d="M48 199H281V201H48V199Z" fill="#4D3C3C"/>
<path d="M48 199H281V201H48V199Z" fill="#413131"/>
<path d="M48 205H281V207H48V205Z" fill="#4D3C3C"/>
<path d="M48 205H281V207H48V205Z" fill="#413131"/>
<path d="M48 211H281V213H48V211Z" fill="#4D3C3C"/>
<path d="M48 211H281V213H48V211Z" fill="#413131"/>
<path d="M48 217H281V219H48V217Z" fill="#4D3C3C"/>
<path d="M48 217H281V219H48V217Z" fill="#413131"/>
<path d="M48 223H281V225H48V223Z" fill="#4D3C3C"/>
<path d="M48 223H281V225H48V223Z" fill="#413131"/>
<path d="M48 229H281V231H48V229Z" fill="#4D3C3C"/>
<path d="M48 229H281V231H48V229Z" fill="#413131"/>
<path d="M75 14H253L281 77H48L75 14Z" fill="#FDEDED"/>
<path fill-rule="evenodd" clip-rule="evenodd" d="M78 77H61V181H78V77ZM251 77V181H269V77H251Z" fill="#563F3F"/>
<path d="M140.364 14H152L148.121 78H136L140.364 14Z" fill="#BA8AA9"/>
<path d="M195.636 14H184L187.879 78H200L195.636 14Z" fill="#BA8AA9"/>
<path d="M77 14H89L69 78.5H56.5L77 14Z" fill="#BA8AA9"/>
<path d="M250.185 14H238L258.308 78H271L250.185 14Z" fill="#BA8AA9"/>
<path d="M97 14H109L97 77H83.5L97 14Z" fill="#BA8AA9"/>
<path d="M233 14H221L233 77H246.5L233 14Z" fill="#BA8AA9"/>
<path d="M118 14H130L123.5 77H110L118 14Z" fill="#BA8AA9"/>
<path d="M215 14H203L209.5 77H223L215 14Z" fill="#BA8AA9"/>
<rect x="162" y="14" width="12" height="64" fill="#BA8AA9"/>
<rect x="48" y="77" width="233" height="14" fill="#E7D3D3"/>
<rect x="57" y="77" width="12" height="14" fill="#9F7891"/>
<rect x="258" y="77" width="13" height="14" fill="#9F7891"/>
<rect x="83" y="77" width="14" height="14" fill="#9F7891"/>
<rect x="233" y="77" width="14" height="14" fill="#9F7891"/>
<rect x="110" y="77" width="13" height="14" fill="#9F7891"/>
<rect x="210" y="77" width="13" height="14" fill="#9F7891"/>
<rect x="136" y="77" width="12" height="14" fill="#9F7891"/>
<rect x="162" y="77" width="12" height="14" fill="#9F7891"/>
<rect x="188" y="77" width="12" height="14" fill="#9F7891"/>
</svg>
