<svg width="903" height="970" viewBox="0 0 903 970" fill="none" xmlns="http://www.w3.org/2000/svg">
<rect x="363" y="507" width="20" height="410" fill="#698F68"/>
<ellipse cx="373.5" cy="415" rx="56.5" ry="92" fill="#BB6232"/>
<ellipse cx="430.073" cy="438.22" rx="68" ry="98.4787" transform="rotate(23 430.073 438.22)" fill="#CB6A4C"/>
<ellipse cx="313.5" cy="437.07" rx="67.7829" ry="94.9644" transform="rotate(-23 313.5 437.07)" fill="#C6835A"/>
<path d="M252.331 340.769C254.927 324.797 273.298 316.999 286.591 326.227L342.424 364.984C356.651 374.86 354.417 396.54 338.475 403.307L271.736 431.637C255.794 438.404 238.646 424.95 241.425 407.855L252.331 340.769Z" fill="#C6835A"/>
<path d="M459.161 322.245C472.454 313.017 490.825 320.815 493.421 336.787L504.327 403.873C507.106 420.968 489.958 434.421 474.016 427.654L407.277 399.325C391.335 392.558 389.101 370.877 403.328 361.001L459.161 322.245Z" fill="#CB6A4C"/>
<path d="M394.74 775.772L416.176 719.435L439.018 675.735C439.385 675.034 439.826 674.374 440.335 673.767L458.042 652.63C459.862 650.458 462.449 649.071 465.266 648.76L467.449 648.519C472.662 647.943 477.555 651.126 479.142 656.124L482.871 667.872C483.281 669.164 483.449 670.521 483.366 671.873L480.939 711.461C480.906 712.009 480.831 712.554 480.716 713.091L469.054 767.56L450.035 826.096L427.453 877.018C427.231 877.52 426.971 878.004 426.676 878.467L405.37 911.921C404.642 913.064 403.709 914.063 402.618 914.867L392.695 922.179C388.474 925.29 382.644 924.989 378.766 921.46L377.141 919.981C375.045 918.074 373.767 915.431 373.571 912.604L371.67 885.096C371.615 884.306 371.646 883.513 371.762 882.73L378.968 833.949L394.74 775.772Z" fill="#698F68"/>
<path d="M387.075 775.968L394.487 835.793L394.53 885.119C394.531 885.935 394.441 886.749 394.261 887.546L388.173 914.577C387.549 917.344 385.881 919.764 383.517 921.33L381.047 922.967C376.782 925.792 371.133 925.304 367.415 921.791L358.068 912.956C357.061 912.004 356.242 910.869 355.656 909.613L338.877 873.648C338.637 873.133 338.437 872.6 338.279 872.054L322.8 818.55L312.112 757.937L308.358 702.366C308.32 701.799 308.326 701.23 308.375 700.664L311.841 661.129C311.962 659.747 312.344 658.401 312.965 657.161L318.727 645.663C321.018 641.09 326.16 638.7 331.134 639.896L334.014 640.589C336.772 641.252 339.167 642.955 340.699 645.342L355.666 668.661C356.107 669.348 356.47 670.082 356.749 670.849L373.578 717.215L387.075 775.968Z" fill="#698F68"/>
</svg>
